<svg xmlns="http://www.w3.org/2000/svg" xmlns:xlink="http://www.w3.org/1999/xlink" width="250" height="350" viewBox="0 0 250 350"><defs><linearGradient id="bg" x2="1" y2="1"><stop stop-color="#2a5684"/><stop offset=".55" stop-color="#122f59"/><stop offset="1" stop-color="#071b18"/></linearGradient><pattern id="diamond" width="20" height="20" patternUnits="userSpaceOnUse"><path d="M10 1L19 10L10 19L1 10Z" fill="none" stroke="#d3ad68" stroke-opacity=".22" stroke-width="1"/></pattern></defs>
 <rect x="2" y="2" width="246" height="346" rx="15" fill="url(#bg)" stroke="#d3ad68" stroke-width="3"/>
 <rect x="12" y="12" width="226" height="326" rx="10" fill="url(#diamond)" stroke="#d3ad68" stroke-width="2"/>
 <rect x="23" y="23" width="204" height="304" rx="5" fill="none" stroke="#d3ad68" stroke-width="1.2"/>
 <path d="M23 65 Q65 42 55 23 M227 65 Q185 42 195 23 M23 285 Q65 308 55 327 M227 285 Q185 308 195 327" fill="none" stroke="#d3ad68" stroke-width="3"/>
 <circle cx="125" cy="175" r="70" fill="#122f59" stroke="#d3ad68" stroke-width="3"/>
 <circle cx="125" cy="175" r="58" fill="none" stroke="#d3ad68" stroke-opacity=".6"/>
 <text x="125" y="214" text-anchor="middle" fill="#d3ad68" font-family="DejaVu Sans" font-size="110">♠</text>
 <text x="125" y="68" text-anchor="middle" font-size="11" fill="#d3ad68" font-family="DejaVu Serif" letter-spacing="3">RUNG CLUB</text>
 <text x="125" y="291" text-anchor="middle" font-size="11" fill="#d3ad68" font-family="DejaVu Serif" letter-spacing="3">CARD HOUSE</text></svg>